# xmcd
#
# Track frame offsets:
# 150
# 20365
# 44638
# 57653
# 79563
# 95233
# 110143
# 127310
# 144480
# 160178
# 177025
# 184925
# 211245
# 234945
# 253225
# 280003
# 296963
#
# Disc length: 4127 seconds
#
#
# Revision: 1
# Processed by: cddbd v1.5.2PL0 Copyright (c) Steve Scherf et al.
# Submitted via: FreeRIP 2.941 
#
DISCID=08101d11
DTITLE=David McCullough - David McCullough - 2005 - 1776 - [CD5]
DYEAR=2005
DGENRE=Audiobook
TTITLE0=David McCullough - 2005 - 1776 - [CD5]
TTITLE1=David McCullough - 2005 - 1776 - [CD5]
TTITLE2=David McCullough - 2005 - 1776 - [CD5]
TTITLE3=David McCullough - 2005 - 1776 - [CD5]
TTITLE4=David McCullough - 2005 - 1776 - [CD5]
TTITLE5=David McCullough - 2005 - 1776 - [CD5]
TTITLE6=David McCullough - 2005 - 1776 - [CD5]
TTITLE7=David McCullough - 2005 - 1776 - [CD5]
TTITLE8=David McCullough - 2005 - 1776 - [CD5]
TTITLE9=David McCullough - 2005 - 1776 - [CD5]
TTITLE10=David McCullough - 2005 - 1776 - [CD5]
TTITLE11=David McCullough - 2005 - 1776 - [CD5]
TTITLE12=David McCullough - 2005 - 1776 - [CD5]
TTITLE13=David McCullough - 2005 - 1776 - [CD5]
TTITLE14=David McCullough - 2005 - 1776 - [CD5]
TTITLE15=David McCullough - 2005 - 1776 - [CD5]
TTITLE16=David McCullough - 2005 - 1776 - [CD5]
EXTD=YEAR: 2005
EXTT0=
EXTT1=
EXTT2=
EXTT3=
EXTT4=
EXTT5=
EXTT6=
EXTT7=
EXTT8=
EXTT9=
EXTT10=
EXTT11=
EXTT12=
EXTT13=
EXTT14=
EXTT15=
EXTT16=
PLAYORDER=
